<svg xmlns="http://www.w3.org/2000/svg" xmlns:xlink="http://www.w3.org/1999/xlink" width="201.301" height="248.698" viewBox="0 0 201.301 248.698">
  <defs>
    <linearGradient id="linear-gradient" x1="0.002" y1="26.489" x2="1.002" y2="26.489" gradientUnits="objectBoundingBox">
      <stop offset="0.01"/>
      <stop offset="1" stop-opacity="0"/>
    </linearGradient>
    <linearGradient id="linear-gradient-2" y1="8.149" x2="1.002" y2="8.149" gradientUnits="objectBoundingBox">
      <stop offset="0" stop-color="#ecc4d7"/>
      <stop offset="0.42" stop-color="#efd4d1"/>
      <stop offset="1" stop-color="#f2eac9"/>
    </linearGradient>
    <linearGradient id="linear-gradient-3" x1="6.4" y1="14.649" x2="7.19" y2="14.649" xlink:href="#linear-gradient"/>
    <linearGradient id="linear-gradient-4" x1="0.002" y1="5.829" x2="1" y2="5.829" xlink:href="#linear-gradient-2"/>
    <linearGradient id="linear-gradient-5" x1="0.522" y1="11.172" x2="1.12" y2="11.172" xlink:href="#linear-gradient"/>
    <linearGradient id="linear-gradient-6" x1="0" y1="6.018" x2="1" y2="6.018" xlink:href="#linear-gradient"/>
    <linearGradient id="linear-gradient-7" x1="0.004" y1="44.821" x2="0.999" y2="44.821" xlink:href="#linear-gradient"/>
    <linearGradient id="linear-gradient-8" x1="0.004" y1="48.599" x2="1" y2="48.599" xlink:href="#linear-gradient"/>
    <linearGradient id="linear-gradient-9" x1="-0.003" y1="8.769" x2="0.997" y2="8.769" xlink:href="#linear-gradient-2"/>
    <linearGradient id="linear-gradient-10" x1="0.004" y1="22.71" x2="0.995" y2="22.71" xlink:href="#linear-gradient-2"/>
    <linearGradient id="linear-gradient-11" x1="0.008" y1="22.205" x2="1.007" y2="22.205" xlink:href="#linear-gradient-2"/>
    <linearGradient id="linear-gradient-12" x1="0.002" y1="-9.539" x2="1" y2="-9.539" xlink:href="#linear-gradient-2"/>
    <linearGradient id="linear-gradient-13" x1="-0.002" y1="-14.507" x2="0.999" y2="-14.507" xlink:href="#linear-gradient-2"/>
    <linearGradient id="linear-gradient-14" x1="-0.001" y1="8.162" x2="0.997" y2="8.162" xlink:href="#linear-gradient-2"/>
    <linearGradient id="linear-gradient-15" x1="0.987" y1="0.013" x2="-2.385" y2="3.184" gradientUnits="objectBoundingBox">
      <stop offset="0" stop-opacity="0"/>
      <stop offset="0.99"/>
    </linearGradient>
    <linearGradient id="linear-gradient-16" x1="0.483" y1="0.197" x2="0.579" y2="2.625" xlink:href="#linear-gradient-15"/>
    <linearGradient id="linear-gradient-17" x1="0.461" y1="0.375" x2="1.103" y2="2.368" xlink:href="#linear-gradient-15"/>
    <linearGradient id="linear-gradient-18" x1="0.34" y1="0.134" x2="1.062" y2="2.944" xlink:href="#linear-gradient-15"/>
    <linearGradient id="linear-gradient-19" x1="0.28" y1="0.025" x2="1.461" y2="3.76" xlink:href="#linear-gradient-15"/>
    <linearGradient id="linear-gradient-20" x1="1.24" y1="0.233" x2="-3.708" y2="2.164" xlink:href="#linear-gradient-15"/>
    <linearGradient id="linear-gradient-21" x1="1.476" y1="0.067" x2="-6.862" y2="3.362" xlink:href="#linear-gradient-15"/>
    <linearGradient id="linear-gradient-22" x1="0.47" y1="0.387" x2="1.095" y2="1.874" xlink:href="#linear-gradient-15"/>
    <linearGradient id="linear-gradient-23" x1="0.459" y1="-0.244" x2="0.566" y2="2.557" gradientUnits="objectBoundingBox">
      <stop offset="0" stop-opacity="0"/>
      <stop offset="0.86" stop-opacity="0.659"/>
      <stop offset="0.99"/>
    </linearGradient>
    <linearGradient id="linear-gradient-24" x1="0.535" y1="-1.399" x2="0.458" y2="2.584" xlink:href="#linear-gradient-23"/>
    <linearGradient id="linear-gradient-25" x1="0.252" y1="1.539" x2="1.252" y2="-2.372" xlink:href="#linear-gradient-15"/>
  </defs>
  <g id="music" transform="translate(-0.039 -0.001)">
    <path id="Tracé_2" data-name="Tracé 2" d="M241.169,30.8C234.249,43.372,231.68,58.749,221.3,68.7c-5.282,5.1-12.109,8.184-18.279,12.156-12.715,8.179-23,20.8-26.129,35.572s1.732,31.552,13.79,40.619c10.33,7.761,24.589,9.442,34.031,18.279,17.575,16.359,11.947,50.479,32.9,62.213,10.517,5.888,24.12,3.132,34.078-3.691s16.977-16.969,23.744-26.927q18.018-26.364,36.037-52.677c5.611-8.184,11.315-16.593,13.419-26.27a39.377,39.377,0,0,0-10.287-35.384c-12.011-12.109-32.158-16.64-38.656-32.427-3.221-7.9-2.1-16.828-1.634-25.336C316.938-13.235,257.387,1.255,241.169,30.8Z" transform="translate(-175.93 -3.358)" fill="#5273ff" opacity="0.18" style="isolation: isolate"/>
    <path id="Tracé_3" data-name="Tracé 3" d="M411.043,43.427c.7.235,5.188,8.043,5.188,8.043l-1.963-.375a5.646,5.646,0,0,0-5.188-3.6C409.08,47.587,409.473,42.915,411.043,43.427Z" transform="translate(-309.579 -26.18)" fill="url(#linear-gradient)"/>
    <path id="Tracé_4" data-name="Tracé 4" d="M379.519,389.475s-10.645,2.658-12.536-1.737a2.985,2.985,0,0,1-.226-.742c-.981-5.423,1.963-28.98,1.963-28.98s-25.054-17.2-35.84-14.259c-9.126,2.479-54.093,48.9-68.071,63.433a8.593,8.593,0,0,1-9.673,1.916,7.057,7.057,0,0,1-2.948-10.424l46.575-67.235,2.607-3.768,42.3-8.96s43.7,18.185,48.146,25.57S379.519,389.475,379.519,389.475Z" transform="translate(-218.923 -184.036)" fill="#5273ff"/>
    <path id="Tracé_5" data-name="Tracé 5" d="M408.989,209.864c-.047,4.113-.61,8.367-2.8,11.823-3.789,5.973-11.409,8.107-18.326,9.724-4.348,1.028-8.789,2.057-13.274,1.634s-8.986-2.5-11.192-6.4a.174.174,0,0,0-.03-.047c-1.353-2.432-1.681-5.282-1.963-8.043-1.493-13.653-2.987-27.563-1.924-41.216a95.567,95.567,0,0,1,1.425-10.773c.2-1.092.427-2.176.687-3.26,1.062-4.634,3.473-12.186,7.471-16.807,2.172-2.513,4.809-4.156,7.953-3.994,3.93.235,7.9.606,11.827,1.122,2.85.427,5.888.934,8.085,2.85,3.695,3.179,3.648,8.836,3.883,13.743C401.612,177,409.138,193.057,408.989,209.864Z" transform="translate(-280.935 -83.001)" fill="#5273ff"/>
    <path id="Tracé_6" data-name="Tracé 6" d="M393.875,129.574c.094,2.2,8.137,7.164,9.813,6.323,2.765.35,3.691-.388,4.16-2.4.653-2.8.887-5.888-.375-8.533a10.434,10.434,0,0,0-4.954-4.766c-2.2-1.075-8.96-3.554-10.752-.794C390.4,121.5,393.815,126.955,393.875,129.574Z" transform="translate(-299.468 -69.042)" fill="url(#linear-gradient-2)"/>
    <ellipse id="Ellipse_4" data-name="Ellipse 4" cx="6.264" cy="6.869" rx="6.264" ry="6.869" transform="translate(98.614 22.858)" fill="url(#linear-gradient-3)"/>
    <path id="Tracé_7" data-name="Tracé 7" d="M392.795,55.216a14.805,14.805,0,0,1,1.779,2.987c2.2,4.395,4.39,8.742,6.588,13.137,1.028,2.1,2.133,4.39,1.685,6.729a7.113,7.113,0,0,1-1.813,3.465,12.241,12.241,0,0,1-5.146,3.507,14.943,14.943,0,0,1-9.579-.141,26.858,26.858,0,0,1-8.367-4.864,17.476,17.476,0,0,1-5.052-5.888c-.934-2.057-1.075-9.954-.559-11.546,1.4-4.719,4.945-6.882,9.2-8.649C385.456,52.366,389.663,51.338,392.795,55.216Z" transform="translate(-288.34 -31.424)" fill="url(#linear-gradient-4)"/>
    <path id="Tracé_8" data-name="Tracé 8" d="M365.939,18.213a11.665,11.665,0,0,1,5.892-2.9,8.338,8.338,0,0,1,6.076.981,5.306,5.306,0,0,1,2.479,5.376c-.751,3.691-5.547,4.86-7.68,7.992a25.454,25.454,0,0,0-1.916,4.207c-1.357,2.709-4.348,4.86-7.339,4.207-1.591-.375-3.413-1.4-4.693-.375-.981.8-.329,2.338-.7,3.554-3.179,10.846,5.423,16.405,5.12,17.067-.516,1.28-11.546,1.587-12.9,1.353a6.427,6.427,0,0,1-3.413-2.1c-2.662-2.662-4.437-6.729-3.132-10.283.516-1.4,1.451-2.662,1.5-4.16.047-1.357-.7-2.56-1.169-3.84a11.224,11.224,0,0,1,4.817-13.368,23.142,23.142,0,0,1,4.343-1.707c2.432-.747,4.864-1.357,7.292-2.057C362.854,21.438,364.164,19.8,365.939,18.213Z" transform="translate(-271.861 -9.986)" fill="#3f3d56"/>
    <path id="Tracé_9" data-name="Tracé 9" d="M377.977,100.649c1.122,4.019-.653,7.992-3.972,8.926s-6.874-1.587-8-5.606.657-8,3.977-8.93S376.854,96.617,377.977,100.649Z" transform="translate(-284.692 -55.681)" fill="url(#linear-gradient-5)"/>
    <path id="Tracé_10" data-name="Tracé 10" d="M364.973,55.205l-5.845,1.451c-16.452-27.9-.277-35.806,1.122-36.459.047,0,.047-.047.094-.047a9.348,9.348,0,0,0-2.85,3.085C351.417,33.739,364.973,55.205,364.973,55.205Z" transform="translate(-276.736 -12.857)" fill="url(#linear-gradient-6)"/>
    <path id="Tracé_11" data-name="Tracé 11" d="M377.032,22.263l-.61.329-3.46,1.869c-3.878-2.364-6.447-2.244-7.962-1.728a8.444,8.444,0,0,1,1.515-1.916,11.158,11.158,0,0,1,1.4-1.169h0C371.827,17.779,377.032,22.263,377.032,22.263Z" transform="translate(-284.307 -12.308)" fill="url(#linear-gradient-7)"/>
    <path id="Tracé_12" data-name="Tracé 12" d="M376.422,23.16l-3.46,1.869c-3.878-2.364-6.447-2.244-7.962-1.728a8.444,8.444,0,0,1,1.515-1.916c.277-.235.606-.516.934-.751h0C371,18.953,375.581,22.46,376.422,23.16Z" transform="translate(-284.307 -12.876)" fill="url(#linear-gradient-8)"/>
    <path id="Tracé_13" data-name="Tracé 13" d="M302.729,139.316c.7,1.28.235,2.85-.235,4.207-.853,2.432-2.5,7.949-4.437,12.86-1.493,3.776-3.162,7.189-4.779,8.559-.085.073-.166.141-.252.2-3.029-9.344-8.533-8.017-14.323-9.28-5.188-1.122-17.156-2.2-22.392-3.085-8.414-1.4-12.9-.653-12.664-7.992.137-5.47,4.578-10.1,9.532-12.48s10.517-3.132,15.847-4.536c5.517-1.446,10.564-5.329,15.987-6.682,4.489-1.075,7.339,1.963,9.387,6.447a2.675,2.675,0,0,1,.329,1.685,2.863,2.863,0,0,1-1.075,1.4c-7.049,6.093-10.607,5-19.439,7.855,7.535-.794,17.737-3.768,28.647-4.373q1.907-.115,3.84-.115C307.73,133.986,302.247,138.381,302.729,139.316Z" transform="translate(-214.727 -70.604)" fill="#5273ff"/>
    <path id="Tracé_14" data-name="Tracé 14" d="M508.3,52.8a3.881,3.881,0,0,1-1.4,2.1c-6.264,6.076-12.574,12.152-18.838,18.18-10.283,9.959-20.566,19.866-30.848,29.824-3.977,3.84-8.6,7.945-14.165,7.851-1.169-5.094-4.207-14.161-2.944-19.3.209-.853-1.4-3.473-.853-4.186.111-.154,4.408-.559,5.692-1.382,2.607-1.681,5.688-3.025,7.838-4.437a192.98,192.98,0,0,0,30.375-24.632c4.625-4.629,9.344-9.673,15.044-12.565a23.841,23.841,0,0,1,2.44-1.079,21.389,21.389,0,0,1,3.034-.892q2.035,4.134,4.066,8.273A3.823,3.823,0,0,1,508.3,52.8Z" transform="translate(-326.811 -25.545)" fill="#5273ff"/>
    <path id="Tracé_15" data-name="Tracé 15" d="M590.582,16.522c.282-2.756.094-5.7,1.28-8.179.277-.61.888-1.31,1.54-1.122.563.141.8.853.934,1.4.427,2.338.047,4.911,1.216,7.014,2.714-3.789,5.376-7.62,8.107-11.4.465-.657,1.118-1.357,1.869-1.122-.141,3.55-2.01,6.776-3.789,9.813a1.7,1.7,0,0,1,2.56.7,3.425,3.425,0,0,1-.282,2.987,1.95,1.95,0,0,1,2.432,3.038l6.217-1.822c.047,1.122-1.028,1.869-2.01,2.428-7.01,4.066-14.119,8.184-21.969,10.052-1.451-2.291-3.226-4.954-1.28-7.1C589.217,21.1,590.292,19.466,590.582,16.522Z" transform="translate(-411.328 -3.06)" fill="url(#linear-gradient-9)"/>
    <path id="Tracé_16" data-name="Tracé 16" d="M608.545,31.06a1.007,1.007,0,0,0,.324,1.28,1.519,1.519,0,0,0,.8.141,6.609,6.609,0,0,0,3.5-1.122,8.153,8.153,0,0,0-3.179,3.6.657.657,0,0,0,0,.653.8.8,0,0,0,.469.282c1.54.282,2.944-.887,4.348-1.634.887-.469,1.822-.8,2.709-1.31a3.84,3.84,0,0,0,1.916-2.2,1,1,0,0,0-.23-1.075,1.1,1.1,0,0,0-1.075.047c-1.028.371-2.057.747-3.085,1.169a5.193,5.193,0,0,0,2.193-3.883,1.216,1.216,0,0,0-.137-.7c-.853-1.216-3.742.563-4.582,1.169-.559.427-1.075.934-1.634,1.4C610.132,29.473,608.963,30.126,608.545,31.06Z" transform="translate(-423.876 -16.152)" fill="url(#linear-gradient-10)"/>
    <path id="Tracé_17" data-name="Tracé 17" d="M358.385,101.219c-.653,0-1.028.7-1.28,1.31a8.026,8.026,0,0,0-.375,3.315,3.793,3.793,0,0,0,.853,2.133c1.634,1.826,4.16-.427,4.16-2.381C361.752,104.3,359.832,101.172,358.385,101.219Z" transform="translate(-279.544 -59.337)" fill="url(#linear-gradient-11)"/>
    <path id="Tracé_18" data-name="Tracé 18" d="M519.522,493.269a20.171,20.171,0,0,0-.563,4.395,1.518,1.518,0,0,0,.188.794,1.536,1.536,0,0,0,.747.563,13.653,13.653,0,0,0,10.334.559,1.873,1.873,0,0,0,1.028-.653,1.625,1.625,0,0,0,0-1.591,13.453,13.453,0,0,0-.892-1.353c-.981-1.592-.887-3.554-.7-5.423a65.081,65.081,0,0,1,1.075-6.686c.141-.606-8.039-1.54-9.114-.277-.7.794-.7,2.85-.887,3.84C520.362,489.382,519.94,491.307,519.522,493.269Z" transform="translate(-372.575 -278.205)" fill="url(#linear-gradient-12)"/>
    <path id="Tracé_19" data-name="Tracé 19" d="M517.018,504.241a10.864,10.864,0,0,0-2.944-.747,2.814,2.814,0,0,0-2.62,1.216,3.012,3.012,0,0,0-.375,1.259c-.653,3.507-1.306,7.014-2.01,10.564a2.56,2.56,0,0,0,0,1.451,2.48,2.48,0,0,0,1.638,1.31,21.04,21.04,0,0,0,6.869.887l23.894.427a2,2,0,0,0,1.028-.188c.853-.469.516-1.779-.047-2.526-1.869-2.709-5.12-4.019-8.085-5.47a19.061,19.061,0,0,1-4.356-2.743c-1.122-1.028-1.822-2.9-3.132-3.7a6.8,6.8,0,0,0-3.366-.465A28.16,28.16,0,0,1,517.018,504.241Z" transform="translate(-366.845 -289.971)" fill="#5273ff"/>
    <path id="Tracé_20" data-name="Tracé 20" d="M513.562,544.628c2.01.094,3.977.853,5.973,1.169a32,32,0,0,0,6.357.141c3.221-.188,6.494-.329,9.72-.512a7.609,7.609,0,0,0,3.84-.853c1.126-.713,1.916-2.133,1.352-3.32-.606-1.306-2.334-1.634-3.784-1.728-8.32-.606-16.734-1.634-25.1-1.869-2.479-.047-6.31.512-6.029,3.878C506.317,545.332,510.993,544.487,513.562,544.628Z" transform="translate(-365.075 -309.557)" fill="#5273ff"/>
    <path id="Tracé_21" data-name="Tracé 21" d="M552.421,506.976a1.63,1.63,0,0,1,.606-2.01,1.707,1.707,0,0,1,2.1.282,3.9,3.9,0,0,1,.606,2.432,8.589,8.589,0,0,0,1.873,4.672" transform="translate(-391.684 -290.678)" fill="#5273ff"/>
    <path id="Tracé_22" data-name="Tracé 22" d="M241.967,517.66a57.35,57.35,0,0,1-7.957,10.129c1.707,2.987,5.8,3.883,8.96,2.667s5.517-4.019,7.1-7.057c-3.46-.981-5.414-3.413-8.107-5.739" transform="translate(-209.206 -298.094)" fill="url(#linear-gradient-13)"/>
    <path id="Tracé_23" data-name="Tracé 23" d="M219.69,538.748a11.9,11.9,0,0,1-1.655,2.223c-2.62,2.9-5.235,5.845-7.855,8.742a8.673,8.673,0,0,1-3.319,2.667,8.768,8.768,0,0,1-3.691.23c-4.8-.341-9.592-.717-14.426-1.058l-1.468-.111a3.589,3.589,0,0,1-1.587-.371c-1.357-.794-1.122-2.807-.469-4.207a12.079,12.079,0,0,1,7.339-6.357c2.244-.7,4.693-.747,6.733-1.775a19.076,19.076,0,0,0,4.207-3.413c1.869-1.775,2.133-2.432,4.578-1.5.883.282,12.109,3.2,12.109,2.534A3.793,3.793,0,0,1,219.69,538.748Z" transform="translate(-180.934 -307.116)" fill="#5273ff"/>
    <path id="Tracé_24" data-name="Tracé 24" d="M187.838,574.429a117.476,117.476,0,0,0,15.471,1.28,10.7,10.7,0,0,0,4.023-.606,4.011,4.011,0,0,0,2.522-2.987,1.546,1.546,0,0,0-.794-1.732,2.354,2.354,0,0,0-.563-.094c-7.428-.7-14.814-1.446-22.247-2.133-2.526-.235-5.845.324-5.973,3.55C180.158,574.663,185.7,574.151,187.838,574.429Z" transform="translate(-178.399 -327.018)" fill="#5273ff"/>
    <path id="Tracé_25" data-name="Tracé 25" d="M349.26,104.979a3.645,3.645,0,0,0,3.46-2.334A37.5,37.5,0,0,0,354,98.378,9.387,9.387,0,0,1,364.1,92.4a.8.8,0,0,1,.61.329c.141.282-.094.559-.329.794a9.028,9.028,0,0,1-3.6,2.1,14.919,14.919,0,0,1,8.226-.559,2.306,2.306,0,0,1-1.169,1.216c-2.133,1.306-4.267,2.56-6.4,3.878,2.2-1.216,4.582-2.526,7.1-2.385.282.516-.235,1.075-.7,1.4-1.638,1.216-3.226,2.432-4.864,3.644a8.819,8.819,0,0,1,3.883-1.259c-.853,1.775-3.132,2.24-4.3,3.84a14.776,14.776,0,0,0-.981,1.963,10.385,10.385,0,0,1-5.094,5.094,1.312,1.312,0,0,1-1.31.047,1.357,1.357,0,0,1-.375-.606A14.466,14.466,0,0,0,349.26,104.979Z" transform="translate(-275.282 -54.23)" fill="url(#linear-gradient-14)"/>
    <path id="Tracé_26" data-name="Tracé 26" d="M386.953,160.47s.853,9.122.465,12.676,4.719,39.075,5.12,50.526-2.385,10.667-2.385,10.667c-7.057,3.554-23.561,2.62-23.561,2.62l-1.822,3.132a85.2,85.2,0,0,0,26.027-1.826,109.844,109.844,0,0,0,23.185-8.179l-3.132-1.31s-14.631,5.1-20.706,5.547" transform="translate(-284.175 -93.307)" fill="none" stroke="#fff" stroke-miterlimit="10" stroke-width="1.1"/>
    <path id="Tracé_27" data-name="Tracé 27" d="M581.668,43.05s-3.038,4.719-1.075,9.067a6.812,6.812,0,0,0,5.811,4.348" transform="translate(-407.534 -25.987)" fill="none" stroke="#fff" stroke-miterlimit="10" stroke-width="0.96"/>
    <path id="Tracé_28" data-name="Tracé 28" d="M320.927,242.026c-2.317,5.4-22.835,4.4-23.731,4.356a.175.175,0,0,0-.03-.047c-1.353-2.432-1.681-5.282-1.963-8.043-1.493-13.653-2.987-27.563-1.924-41.216-.085.073-.166.141-.252.2-3.029-9.344-8.533-8.017-14.323-9.28-5.188-1.122-17.156-2.2-22.392-3.085-8.414-1.4-12.9-.653-12.664-7.992,0,0,39.109,6.665,46.482,7.983a18.266,18.266,0,0,1,4.574,1.4,13.159,13.159,0,0,1,3.354,2.214,23.721,23.721,0,0,1,4.181,5.6c2.364,3.951,2.893,32.376,4.736,41.588S320.927,242.026,320.927,242.026Z" transform="translate(-214.727 -102.738)" fill="url(#linear-gradient-15)"/>
    <path id="Tracé_29" data-name="Tracé 29" d="M282.84,146.732c2.022-1.707,4.634-2.53,7.147-3.375a151.1,151.1,0,0,0,22.157-9.472,3.737,3.737,0,0,1,1.237-.474c1.737-.2,2.709,1.916,3.115,3.618-1.813.427-3.068,2.018-4.493,3.226-4.151,3.5-9.408,3.345-14.349,4.74a26,26,0,0,1-5.973,1.242l-4.531.252C286.322,146.536,283.437,146.224,282.84,146.732Z" transform="translate(-237.202 -77.786)" fill="url(#linear-gradient-16)"/>
    <path id="Tracé_30" data-name="Tracé 30" d="M493.325,46.9l-.171,5.547S449.02,94.3,431.646,92.724c-3.46-.316,3.132-2.36,2.722-2.808-.047-.055,5.692-1.382,5.692-1.382,2.607-1.681,5.688-3.025,7.838-4.437a192.976,192.976,0,0,0,30.383-24.632C482.906,54.836,487.625,49.793,493.325,46.9Z" transform="translate(-321.939 -28.194)" fill="url(#linear-gradient-17)"/>
    <path id="Tracé_31" data-name="Tracé 31" d="M382.44,145.2s5.824,5.12,12.271,4.19,2.372-.525,2.372-.525-8.819-3.951-8.819-7.633S382.44,145.2,382.44,145.2Z" transform="translate(-294.306 -81.704)" fill="#5273ff"/>
    <path id="Tracé_32" data-name="Tracé 32" d="M428.357,140.21s1.212,3.759-4.779,6.319-2.3.781-2.3.781,4.864-8.777,2.953-11.947S428.357,140.21,428.357,140.21Z" transform="translate(-315.928 -78.487)" fill="#5273ff"/>
    <path id="Tracé_33" data-name="Tracé 33" d="M430.654,140.247s.132,1.139-4.126,4.036l-2.368,1.229s4.267-6.942,2.368-10.091S430.654,140.247,430.654,140.247Z" transform="translate(-318.225 -78.524)" fill="url(#linear-gradient-18)"/>
    <path id="Tracé_34" data-name="Tracé 34" d="M382.44,145.2s5.807,4.966,12.271,4.19c2.2-.265,2.56-.823,2.56-.823s-9-3.652-9-7.334S382.44,145.2,382.44,145.2Z" transform="translate(-294.306 -81.704)" fill="url(#linear-gradient-19)"/>
    <path id="Tracé_35" data-name="Tracé 35" d="M484.424,383.43c-.393,5.547-3.162,32.376-3.162,32.376l-4.2-.073a2.987,2.987,0,0,1-.226-.742c-.981-5.423,1.963-28.98,1.963-28.98s-25.054-17.2-35.84-14.259c0,0,6.336-4.907,11.469-4.117S481.676,377.9,481.676,377.9,484.816,377.9,484.424,383.43Z" transform="translate(-329.003 -212.031)" fill="url(#linear-gradient-20)"/>
    <path id="Tracé_36" data-name="Tracé 36" d="M314.335,348.32c-3.947,1.579-15.787,15.394-25.664,27.239-9.242,11.093-34.394,41.7-37.547,45.539a6.985,6.985,0,0,1-.154-1.464,7.058,7.058,0,0,1,1.23-3.982l46.57-67.233A112.088,112.088,0,0,0,314.335,348.32Z" transform="translate(-218.93 -201.007)" fill="url(#linear-gradient-21)"/>
    <path id="Tracé_37" data-name="Tracé 37" d="M225.025,545.833a11.9,11.9,0,0,1-1.655,2.223c-2.62,2.9-5.235,5.845-7.855,8.742a8.672,8.672,0,0,1-3.319,2.667,8.767,8.767,0,0,1-3.691.23c-4.8-.341-9.592-.717-14.426-1.058a3.87,3.87,0,0,1-.055-1.152,2.56,2.56,0,0,1,.478-1.408,2.437,2.437,0,0,1,.926-.653,9.859,9.859,0,0,1,3.934-.584l9.118-.12a7.445,7.445,0,0,0,3.413-.572,7.739,7.739,0,0,0,1.4-.986q1.707-1.4,3.413-2.812a27.915,27.915,0,0,1,6.268-4.267A2.987,2.987,0,0,1,225.025,545.833Z" transform="translate(-186.269 -314.201)" fill="url(#linear-gradient-22)"/>
    <path id="Tracé_38" data-name="Tracé 38" d="M513.265,508.887a1.212,1.212,0,0,1,1.357-.811,8.374,8.374,0,0,1,2.837.427c2.133.828,3.413,3.051,4.267,5.171.73,1.741,1.4,3.61,2.846,4.817a11.947,11.947,0,0,0,2.867,1.562,42.837,42.837,0,0,1,6.144,3.358c.141.094.3.23.26.393s-.166.192-.286.239a7.946,7.946,0,0,1-2.671.363,49.231,49.231,0,0,1-5.312-.363q-4.565-.5-9.105-1.195a22.293,22.293,0,0,1-4.228-.952,2.985,2.985,0,0,1-1.062-.589,2.471,2.471,0,0,1-.661-1.446,8.761,8.761,0,0,1,.252-2.953c.294-1.468.533-2.957.853-4.412A9.219,9.219,0,0,1,513.265,508.887Z" transform="translate(-367.718 -292.589)" fill="url(#linear-gradient-23)"/>
    <path id="Tracé_39" data-name="Tracé 39" d="M513.579,543.931a6.506,6.506,0,0,0-2.074-.312,2.133,2.133,0,0,0-1.732,1.016,2.021,2.021,0,0,0,.764,2.445,4.441,4.441,0,0,0,2.658.666,17.856,17.856,0,0,1,2.786.021,25.7,25.7,0,0,1,2.833.853,15.632,15.632,0,0,0,3.213.427c5.513.316,11.226.341,16.329-1.771a.891.891,0,0,0,.525-.4.636.636,0,0,0-.337-.768,1.889,1.889,0,0,0-.9-.137c-3.678.064-7.381.324-11.051.073a72.777,72.777,0,0,1-13.013-2.116Z" transform="translate(-367.212 -312.977)" fill="url(#linear-gradient-24)"/>
    <path id="Tracé_40" data-name="Tracé 40" d="M227.824,542.847a12.253,12.253,0,0,0,5.41-3.413.325.325,0,0,0-.055-.576,12.486,12.486,0,0,0-5.346-2.359,1.883,1.883,0,0,0-1.054.03,2.171,2.171,0,0,0-.828.794,17.921,17.921,0,0,1-3.806,3.81c-.235.175-.5.4-.469.691a.755.755,0,0,0,.337.469,5.5,5.5,0,0,0,5.611.661" transform="translate(-202.133 -308.86)" fill="url(#linear-gradient-25)"/>
    <g id="Groupe_29" data-name="Groupe 29" transform="translate(33.368 71.733)">
      <path id="Tracé_41" data-name="Tracé 41" d="M547.677,182.7l22.345-11.52-1,20.7s-2.4,6.891-5.606,4.326,3.686-6.886,3.686-6.886l.158-9.933-17.139,8.329.324,12.015s-2.56,8.166-5.286,5.444,2.88-8.166,2.88-8.166Z" transform="translate(-420.534 -171.18)" fill="#5273ff"/>
      <path id="Tracé_42" data-name="Tracé 42" d="M260.733,233.29l4.561-18.5s7.369,5.926,6.251,10.24a7.983,7.983,0,0,1-5.286,5.444s2.24-3.682,1.762-4.962-3.123-3.524-3.123-3.524l-3.6,15.079s-4.8,7.364-6.886,2.082S260.733,233.29,260.733,233.29Z" transform="translate(-254.083 -196.183)" fill="#5273ff"/>
    </g>
  </g>
</svg>
